<svg xmlns="http://www.w3.org/2000/svg" viewBox="0 0 760 240" role="img" aria-labelledby="title desc">
  <title id="title">ORNK AVTO logotip</title>
  <desc id="desc">Minimalistična linija avtomobila z močnim napisom ORNK AVTO in rdečimi poudarki.</desc>
  <rect width="760" height="240" fill="#ffffff" />
  <path d="M80 110 C180 60, 360 40, 540 70 C610 82, 670 100, 710 120" fill="none" stroke="#000000" stroke-width="8" stroke-linecap="round" />
  <text x="140" y="165" font-family="Montserrat, Inter, Arial, sans-serif" font-size="86" font-weight="700" fill="#000000" letter-spacing="2">ORNK AVTO</text>
  <g fill="#E10600">
    <path d="M105 150 C70 140, 55 120, 45 100 C60 110, 70 112, 90 114 C65 102, 55 88, 52 72 C70 86, 88 92, 110 96 Z" />
    <path d="M640 150 C675 140, 690 120, 700 100 C685 110, 675 112, 655 114 C680 102, 690 88, 693 72 C675 86, 657 92, 635 96 Z" />
  </g>
  <text x="180" y="210" font-family="Inter, Arial, sans-serif" font-size="24" font-weight="600" fill="#E10600" letter-spacing="2">STROKOVNI PREGLED RABLJENIH VOZIL</text>
</svg>
